<svg xmlns="http://www.w3.org/2000/svg" id="canvas" viewBox="240.980 265.147 805.149 154.452"><path d="M 282.86,283.28 C 282.03 284.01, 281.48 285.02, 280.51 287.45 C 279.54 289.87, 279.25 291.53, 278.04 295.39 C 276.83 299.26, 276.12 301.87, 274.45 306.78 C 272.79 311.69, 271.79 314.53, 269.71 319.94 C 267.63 325.35, 266.35 328.31, 264.05 333.84 C 261.76 339.36, 260.43 342.28, 258.23 347.55 C 256.03 352.81, 254.94 355.50, 253.03 360.17 C 251.12 364.83, 250.22 367.07, 248.70 370.86 C 247.18 374.65, 246.36 376.33, 245.44 379.10 C 244.52 381.87, 244.35 382.99, 244.10 384.71 C 243.85 386.43, 244.05 386.91, 244.17 387.70 C 244.30 388.49, 244.50 388.46, 244.74 388.66 C 244.97 388.86, 245.09 388.82, 245.34 388.70 C 245.60 388.58, 245.61 388.68, 246.01 388.06 C 246.41 387.44, 246.73 387.14, 247.36 385.59 C 247.99 384.03, 248.31 383.02, 249.14 380.28 C 249.98 377.54, 250.28 375.73, 251.54 371.90 C 252.80 368.06, 253.65 365.80, 255.43 361.11 C 257.21 356.43, 258.27 353.73, 260.43 348.46 C 262.59 343.19, 263.91 340.27, 266.24 334.75 C 268.57 329.24, 269.87 326.28, 272.09 320.89 C 274.30 315.51, 275.41 312.68, 277.32 307.83 C 279.22 302.97, 280.17 300.44, 281.60 296.61 C 283.02 292.79, 283.84 291.26, 284.45 288.69 C 285.07 286.13, 284.98 284.87, 284.66 283.79 C 284.35 282.70, 283.70 282.55, 282.86 283.28" style="stroke: black; fill: black;"/><path d="M 258.77,288.52 C 259.52 288.73, 260.10 288.48, 261.54 288.05 C 262.99 287.62, 263.79 287.33, 266.00 286.37 C 268.21 285.41, 269.51 284.50, 272.59 283.24 C 275.67 281.97, 277.55 281.26, 281.41 280.03 C 285.26 278.80, 287.55 278.17, 291.87 277.10 C 296.19 276.04, 298.57 275.51, 303.00 274.71 C 307.42 273.90, 309.79 273.57, 313.98 273.08 C 318.17 272.58, 320.28 272.39, 323.94 272.23 C 327.59 272.07, 329.33 272.21, 332.26 272.28 C 335.18 272.34, 336.56 272.54, 338.55 272.54 C 340.55 272.54, 341.14 272.40, 342.23 272.28 C 343.31 272.15, 343.58 272.20, 343.98 271.94 C 344.38 271.67, 344.50 271.37, 344.22 270.94 C 343.95 270.51, 343.69 270.25, 342.62 269.78 C 341.55 269.32, 340.94 268.95, 338.87 268.62 C 336.80 268.29, 335.31 268.12, 332.28 268.15 C 329.24 268.18, 327.43 268.42, 323.70 268.78 C 319.96 269.14, 317.83 269.37, 313.59 269.94 C 309.34 270.52, 306.94 270.86, 302.45 271.66 C 297.96 272.46, 295.55 272.98, 291.14 273.93 C 286.73 274.89, 284.42 275.47, 280.40 276.46 C 276.38 277.44, 274.38 277.86, 271.04 278.87 C 267.71 279.89, 266.03 280.37, 263.73 281.51 C 261.43 282.65, 260.72 283.48, 259.53 284.57 C 258.34 285.66, 257.94 286.18, 257.79 286.97 C 257.63 287.76, 258.02 288.30, 258.77 288.52" style="stroke: black; fill: black;"/><path d="M 251.73,332.58 C 252.19 333.10, 252.51 333.41, 253.97 333.60 C 255.42 333.80, 256.48 334.05, 259.00 333.55 C 261.53 333.06, 263.14 332.21, 266.59 331.12 C 270.04 330.03, 272.15 329.31, 276.25 328.10 C 280.35 326.90, 282.75 326.21, 287.11 325.10 C 291.46 323.99, 293.78 323.45, 298.02 322.57 C 302.25 321.70, 304.68 321.36, 308.27 320.73 C 311.87 320.09, 313.55 319.99, 315.98 319.40 C 318.42 318.82, 319.59 318.41, 320.45 317.80 C 321.30 317.20, 321.26 316.74, 320.26 316.38 C 319.27 316.02, 318.00 315.84, 315.47 316.00 C 312.94 316.15, 311.25 316.49, 307.62 317.17 C 303.99 317.85, 301.59 318.46, 297.33 319.42 C 293.08 320.37, 290.74 320.93, 286.34 321.96 C 281.94 322.99, 279.51 323.63, 275.33 324.58 C 271.16 325.53, 268.96 325.98, 265.45 326.69 C 261.93 327.40, 260.17 327.51, 257.77 328.13 C 255.37 328.76, 254.66 329.25, 253.44 329.82 C 252.23 330.39, 252.03 330.42, 251.68 330.97 C 251.34 331.52, 251.28 332.05, 251.73 332.58" style="stroke: black; fill: black;"/><path d="M 373.12,290.11 C 372.40 290.26, 372.06 290.48, 370.93 291.72 C 369.80 292.97, 369.06 293.67, 367.49 296.33 C 365.92 298.98, 365.22 301.02, 363.10 305.00 C 360.97 308.97, 359.57 311.46, 356.86 316.21 C 354.14 320.96, 352.48 323.73, 349.53 328.75 C 346.58 333.77, 344.87 336.49, 342.09 341.32 C 339.32 346.14, 337.89 348.60, 335.65 352.89 C 333.42 357.17, 332.41 359.22, 330.93 362.76 C 329.45 366.31, 328.75 367.86, 328.25 370.60 C 327.75 373.34, 327.89 374.56, 328.43 376.46 C 328.96 378.36, 329.76 379.14, 330.92 380.11 C 332.07 381.07, 333.09 381.24, 334.20 381.29 C 335.32 381.33, 336.09 380.87, 336.51 380.33 C 336.93 379.78, 336.69 379.02, 336.31 378.57 C 335.93 378.12, 335.30 378.26, 334.62 378.07 C 333.94 377.89, 333.52 378.10, 332.91 377.64 C 332.30 377.17, 331.73 377.01, 331.54 375.75 C 331.35 374.48, 331.49 373.67, 331.97 371.31 C 332.44 368.94, 332.69 367.36, 333.91 363.91 C 335.13 360.47, 335.99 358.37, 338.07 354.10 C 340.14 349.83, 341.54 347.36, 344.26 342.56 C 346.99 337.75, 348.70 335.03, 351.71 330.06 C 354.72 325.08, 356.42 322.33, 359.32 317.69 C 362.22 313.05, 363.74 310.62, 366.22 306.86 C 368.71 303.09, 370.15 301.50, 371.74 298.87 C 373.33 296.23, 373.62 295.25, 374.19 293.67 C 374.75 292.08, 374.76 291.66, 374.55 290.95 C 374.34 290.23, 373.85 289.95, 373.12 290.11" style="stroke: black; fill: black;"/><path d="M 385.00,356.23 C 385.49 356.83, 386.07 357.23, 387.53 357.45 C 388.98 357.66, 389.98 357.69, 392.25 357.32 C 394.53 356.96, 396.04 356.62, 398.91 355.63 C 401.79 354.64, 403.49 353.76, 406.63 352.38 C 409.77 350.99, 411.53 350.17, 414.62 348.71 C 417.71 347.25, 419.41 346.58, 422.09 345.07 C 424.77 343.56, 426.15 342.79, 428.00 341.16 C 429.86 339.52, 430.66 338.60, 431.36 336.88 C 432.06 335.16, 432.15 334.12, 431.51 332.56 C 430.86 331.00, 430.14 330.03, 428.13 329.08 C 426.13 328.13, 424.60 327.65, 421.47 327.80 C 418.33 327.95, 416.39 328.60, 412.47 329.82 C 408.54 331.03, 406.20 331.91, 401.84 333.88 C 397.48 335.85, 394.95 337.15, 390.67 339.68 C 386.39 342.21, 384.09 343.74, 380.46 346.53 C 376.84 349.32, 375.07 350.81, 372.55 353.63 C 370.03 356.45, 368.89 357.87, 367.85 360.65 C 366.81 363.43, 366.77 364.97, 367.35 367.53 C 367.93 370.09, 368.67 371.47, 370.77 373.43 C 372.86 375.39, 374.39 376.19, 377.82 377.33 C 381.24 378.47, 383.41 378.71, 387.89 379.12 C 392.36 379.54, 394.97 379.57, 400.19 379.41 C 405.41 379.25, 408.83 378.84, 413.99 378.32 C 419.15 377.81, 421.99 377.51, 426.00 376.82 C 430.01 376.13, 432.48 375.62, 434.03 374.89 C 435.57 374.17, 435.43 373.40, 433.74 373.21 C 432.06 373.03, 429.61 373.55, 425.60 373.99 C 421.59 374.42, 418.80 374.90, 413.70 375.39 C 408.61 375.88, 405.21 376.34, 400.13 376.42 C 395.04 376.49, 392.47 376.34, 388.28 375.75 C 384.08 375.17, 382.11 374.58, 379.14 373.51 C 376.18 372.43, 375.13 371.73, 373.44 370.38 C 371.76 369.02, 371.14 368.41, 370.72 366.73 C 370.30 365.06, 370.46 364.17, 371.34 362.00 C 372.22 359.82, 372.91 358.47, 375.12 355.86 C 377.32 353.25, 378.94 351.66, 382.35 348.95 C 385.77 346.23, 388.04 344.70, 392.19 342.28 C 396.35 339.87, 398.88 338.62, 403.14 336.89 C 407.39 335.16, 409.76 334.44, 413.48 333.64 C 417.19 332.85, 419.03 333.04, 421.70 332.92 C 424.38 332.80, 425.39 332.87, 426.85 333.04 C 428.32 333.21, 428.70 333.32, 429.03 333.76 C 429.36 334.21, 429.24 334.45, 428.51 335.25 C 427.77 336.06, 427.08 336.61, 425.35 337.78 C 423.63 338.95, 422.38 339.72, 419.87 341.13 C 417.36 342.54, 415.78 343.43, 412.79 344.83 C 409.80 346.23, 408.03 347.02, 404.93 348.13 C 401.83 349.25, 400.07 349.64, 397.29 350.41 C 394.51 351.18, 393.08 351.37, 391.05 351.98 C 389.01 352.59, 388.30 352.97, 387.11 353.46 C 385.93 353.95, 385.52 353.88, 385.10 354.44 C 384.68 354.99, 384.52 355.62, 385.00 356.23" style="stroke: black; fill: black;"/><path d="M 498.20,334.22 C 497.42 334.17, 496.84 334.47, 495.62 335.28 C 494.40 336.09, 493.66 336.61, 492.09 338.28 C 490.53 339.95, 489.61 341.18, 487.80 343.63 C 486.00 346.08, 485.09 347.72, 483.06 350.54 C 481.02 353.35, 479.79 354.89, 477.64 357.71 C 475.49 360.53, 474.25 362.03, 472.32 364.62 C 470.40 367.21, 469.37 368.51, 468.02 370.65 C 466.68 372.80, 466.24 373.83, 465.61 375.37 C 464.97 376.91, 464.96 377.48, 464.85 378.37 C 464.73 379.26, 464.83 379.46, 465.04 379.82 C 465.25 380.17, 465.51 380.24, 465.89 380.15 C 466.27 380.06, 466.35 379.96, 466.94 379.38 C 467.54 378.80, 467.92 378.49, 468.88 377.23 C 469.84 375.97, 470.36 375.10, 471.74 373.08 C 473.12 371.07, 473.96 369.71, 475.79 367.14 C 477.62 364.57, 478.75 362.99, 480.90 360.21 C 483.05 357.44, 484.34 355.91, 486.55 353.25 C 488.77 350.59, 490.03 349.21, 491.97 346.91 C 493.90 344.61, 494.90 343.52, 496.22 341.74 C 497.55 339.96, 497.95 339.25, 498.61 338.00 C 499.27 336.76, 499.60 336.28, 499.52 335.52 C 499.44 334.76, 498.98 334.27, 498.20 334.22" style="stroke: black; fill: black;"/><path d="M 467.20,347.98 C 467.20 348.72, 467.53 349.18, 468.26 350.12 C 468.99 351.07, 469.56 351.53, 470.85 352.70 C 472.14 353.86, 472.99 354.53, 474.72 355.94 C 476.44 357.35, 477.46 358.19, 479.47 359.77 C 481.48 361.35, 482.55 362.27, 484.77 363.83 C 486.99 365.40, 488.16 366.21, 490.56 367.60 C 492.96 368.98, 494.21 369.68, 496.77 370.74 C 499.34 371.80, 500.67 372.29, 503.38 372.89 C 506.09 373.50, 507.53 373.71, 510.32 373.76 C 513.11 373.81, 514.81 373.67, 517.32 373.15 C 519.84 372.63, 521.14 372.06, 522.90 371.17 C 524.65 370.28, 525.58 369.51, 526.10 368.71 C 526.62 367.92, 526.37 367.43, 525.49 367.17 C 524.62 366.92, 523.54 367.22, 521.74 367.44 C 519.94 367.66, 518.77 367.97, 516.49 368.27 C 514.21 368.58, 512.77 368.93, 510.34 368.95 C 507.92 368.97, 506.72 368.89, 504.37 368.38 C 502.02 367.87, 500.88 367.40, 498.61 366.41 C 496.33 365.42, 495.19 364.77, 493.01 363.44 C 490.83 362.12, 489.75 361.35, 487.71 359.81 C 485.68 358.26, 484.70 357.34, 482.82 355.71 C 480.94 354.07, 480.05 353.10, 478.31 351.63 C 476.58 350.16, 475.69 349.35, 474.15 348.36 C 472.62 347.37, 471.83 347.07, 470.65 346.69 C 469.47 346.30, 468.96 346.18, 468.27 346.44 C 467.58 346.70, 467.20 347.25, 467.20 347.98" style="stroke: black; fill: black;"/><path d="M 544.45,333.51 C 543.73 334.12, 543.51 335.09, 542.74 336.87 C 541.97 338.66, 541.44 339.82, 540.60 342.43 C 539.76 345.03, 539.43 346.96, 538.53 349.91 C 537.64 352.87, 536.95 354.50, 536.12 357.21 C 535.30 359.92, 534.93 361.33, 534.39 363.46 C 533.84 365.59, 533.53 366.48, 533.38 367.86 C 533.22 369.25, 533.44 369.72, 533.60 370.39 C 533.76 371.06, 533.95 371.04, 534.19 371.21 C 534.43 371.39, 534.53 371.37, 534.80 371.29 C 535.07 371.21, 535.12 371.30, 535.54 370.83 C 535.96 370.36, 536.28 370.11, 536.90 368.92 C 537.52 367.72, 537.83 366.87, 538.63 364.85 C 539.44 362.83, 539.96 361.48, 540.93 358.81 C 541.89 356.14, 542.44 354.47, 543.46 351.50 C 544.48 348.54, 545.31 346.72, 546.01 343.98 C 546.71 341.24, 546.87 339.84, 546.95 337.80 C 547.02 335.77, 546.88 334.67, 546.38 333.81 C 545.88 332.95, 545.18 332.89, 544.45 333.51" style="stroke: black; fill: black;"/><path d="M 558.82,292.01 C 559.29 291.79, 559.15 291.91, 558.80 292.29 C 558.46 292.67, 557.72 293.26, 557.10 293.91 C 556.48 294.57, 555.67 295.40, 555.71 295.57 C 555.75 295.74, 556.43 295.53, 557.31 294.78 C 558.19 294.03, 559.49 292.83, 560.10 291.83 C 560.71 290.83, 560.77 289.97, 560.36 289.78 C 559.95 289.59, 558.87 290.29, 558.04 290.88 C 557.20 291.46, 556.51 292.21, 556.19 292.72 C 555.87 293.23, 555.90 293.57, 556.43 293.43 C 556.95 293.28, 558.34 292.24, 558.82 292.01" style="stroke: black; fill: black;"/><path d="M 591.08,305.03 C 590.43 305.47, 590.26 305.92, 589.51 307.50 C 588.77 309.08, 588.38 310.08, 587.36 312.94 C 586.33 315.80, 585.87 317.89, 584.39 321.78 C 582.91 325.67, 581.87 328.07, 579.95 332.40 C 578.03 336.74, 576.79 339.17, 574.79 343.44 C 572.79 347.71, 571.68 349.98, 569.95 353.74 C 568.23 357.51, 567.22 359.34, 566.16 362.27 C 565.11 365.20, 564.87 366.59, 564.67 368.40 C 564.47 370.21, 564.89 370.59, 565.17 371.32 C 565.45 372.05, 565.80 371.94, 566.07 372.03 C 566.34 372.12, 566.37 371.92, 566.51 371.78 C 566.64 371.64, 566.45 371.85, 566.75 371.34 C 567.04 370.83, 567.35 370.76, 567.98 369.22 C 568.61 367.67, 568.92 366.44, 569.92 363.60 C 570.91 360.77, 571.43 358.81, 572.96 355.04 C 574.49 351.26, 575.57 348.99, 577.56 344.74 C 579.55 340.49, 580.82 338.06, 582.91 333.78 C 584.99 329.49, 586.15 327.15, 587.99 323.32 C 589.83 319.50, 591.02 317.61, 592.09 314.64 C 593.16 311.67, 593.20 310.34, 593.34 308.48 C 593.47 306.61, 593.22 306.02, 592.77 305.33 C 592.32 304.64, 591.73 304.60, 591.08 305.03" style="stroke: black; fill: black;"/><path d="M 602.19,299.56 C 602.26 299.98, 602.53 299.47, 602.58 299.84 C 602.64 300.21, 602.55 300.11, 602.47 301.40 C 602.39 302.69, 602.32 303.69, 602.18 306.28 C 602.04 308.87, 602.21 310.83, 601.77 314.36 C 601.33 317.88, 600.79 320.11, 599.99 323.90 C 599.18 327.69, 598.56 329.78, 597.74 333.30 C 596.92 336.83, 596.26 338.58, 595.88 341.53 C 595.50 344.49, 595.41 345.94, 595.85 348.06 C 596.28 350.19, 596.76 351.17, 598.04 352.17 C 599.33 353.16, 600.33 353.44, 602.28 353.02 C 604.24 352.60, 605.47 352.07, 607.82 350.05 C 610.17 348.03, 611.19 346.24, 614.03 342.93 C 616.86 339.61, 618.51 337.47, 621.99 333.47 C 625.47 329.48, 627.57 327.10, 631.43 322.95 C 635.28 318.79, 637.50 316.46, 641.26 312.71 C 645.02 308.96, 646.97 307.04, 650.22 304.20 C 653.47 301.36, 655.23 300.29, 657.51 298.49 C 659.79 296.68, 660.63 295.93, 661.63 295.18 C 662.63 294.43, 662.70 294.16, 662.51 294.74 C 662.31 295.32, 661.60 295.85, 660.65 298.07 C 659.69 300.29, 659.28 302.17, 657.75 305.84 C 656.21 309.52, 655.13 311.97, 652.97 316.45 C 650.80 320.92, 649.33 323.60, 646.91 328.22 C 644.49 332.83, 643.06 335.32, 640.86 339.52 C 638.65 343.72, 637.48 345.79, 635.89 349.21 C 634.30 352.63, 633.53 354.12, 632.90 356.63 C 632.27 359.13, 632.57 360.23, 632.73 361.73 C 632.88 363.23, 633.27 363.67, 633.68 364.13 C 634.08 364.59, 634.43 364.47, 634.75 364.03 C 635.08 363.58, 634.92 363.19, 635.28 361.92 C 635.64 360.65, 635.83 359.95, 636.56 357.68 C 637.30 355.40, 637.57 353.92, 638.95 350.55 C 640.33 347.19, 641.36 345.05, 643.46 340.86 C 645.56 336.66, 646.98 334.16, 649.46 329.57 C 651.93 324.99, 653.45 322.34, 655.85 317.93 C 658.26 313.53, 659.63 311.25, 661.47 307.55 C 663.31 303.85, 664.49 302.14, 665.07 299.45 C 665.65 296.75, 665.23 295.43, 664.36 294.09 C 663.50 292.75, 662.57 292.47, 660.74 292.75 C 658.92 293.04, 657.74 293.66, 655.24 295.52 C 652.74 297.37, 651.39 298.96, 648.22 302.03 C 645.05 305.10, 643.14 307.03, 639.39 310.85 C 635.65 314.68, 633.42 317.01, 629.50 321.14 C 625.58 325.26, 623.43 327.63, 619.79 331.48 C 616.15 335.33, 614.35 337.40, 611.30 340.38 C 608.25 343.35, 606.63 344.47, 604.56 346.37 C 602.49 348.26, 601.94 349.03, 600.95 349.84 C 599.97 350.65, 599.91 350.82, 599.62 350.40 C 599.33 349.99, 599.38 349.42, 599.51 347.76 C 599.63 346.11, 599.83 344.87, 600.24 342.14 C 600.65 339.42, 600.84 337.61, 601.56 334.14 C 602.27 330.67, 602.89 328.58, 603.84 324.79 C 604.79 320.99, 605.44 318.80, 606.28 315.17 C 607.13 311.53, 607.88 309.57, 608.07 306.63 C 608.26 303.68, 607.93 302.27, 607.22 300.45 C 606.52 298.64, 605.56 298.09, 604.56 297.55 C 603.56 297.01, 602.72 297.35, 602.24 297.75 C 601.77 298.15, 602.12 299.14, 602.19 299.56" style="stroke: black; fill: black;"/><path d="M 680.38,331.79 C 679.63 332.10, 679.35 332.62, 678.35 333.97 C 677.34 335.31, 676.59 336.27, 675.33 338.53 C 674.08 340.78, 673.42 342.51, 672.06 345.24 C 670.71 347.97, 669.69 349.58, 668.57 352.18 C 667.45 354.79, 667.01 356.23, 666.46 358.26 C 665.90 360.29, 665.63 361.39, 665.78 362.34 C 665.92 363.28, 666.36 363.48, 667.18 363.00 C 668.00 362.51, 668.65 361.59, 669.88 359.90 C 671.10 358.22, 671.88 356.99, 673.30 354.57 C 674.71 352.14, 675.50 350.45, 676.94 347.76 C 678.39 345.06, 679.47 343.52, 680.52 341.09 C 681.58 338.66, 681.91 337.36, 682.22 335.62 C 682.53 333.87, 682.44 333.14, 682.07 332.38 C 681.70 331.61, 681.12 331.47, 680.38 331.79" style="stroke: black; fill: black;"/><path d="M 697.94,297.44 C 698.52 297.08, 698.66 297.05, 698.56 297.05 C 698.46 297.06, 698.01 297.38, 697.44 297.46 C 696.87 297.53, 696.28 297.24, 695.70 297.44 C 695.13 297.64, 694.57 298.17, 694.57 298.45 C 694.57 298.74, 695.01 299.06, 695.69 298.86 C 696.36 298.66, 697.37 297.80, 697.94 297.44" style="stroke: black; fill: black;"/><path d="M 743.78,334.78 C 743.41 333.91, 742.60 333.16, 741.06 332.28 C 739.53 331.41, 738.48 330.87, 736.10 330.40 C 733.72 329.94, 732.05 329.70, 729.17 329.98 C 726.29 330.26, 724.71 330.79, 721.72 331.81 C 718.72 332.82, 717.07 333.58, 714.21 335.06 C 711.35 336.54, 709.74 337.39, 707.43 339.20 C 705.12 341.02, 703.97 342.14, 702.66 344.12 C 701.35 346.10, 700.90 347.28, 700.87 349.10 C 700.84 350.91, 701.23 351.93, 702.50 353.20 C 703.76 354.47, 704.88 355.06, 707.19 355.44 C 709.51 355.82, 711.10 355.73, 714.08 355.10 C 717.05 354.47, 718.77 353.59, 722.08 352.26 C 725.40 350.94, 727.32 350.06, 730.67 348.48 C 734.02 346.91, 735.90 345.94, 738.84 344.39 C 741.77 342.83, 743.34 342.05, 745.34 340.70 C 747.34 339.36, 748.10 338.54, 748.85 337.67 C 749.60 336.80, 749.48 336.33, 749.08 336.36 C 748.69 336.39, 747.92 336.55, 746.86 337.83 C 745.80 339.10, 744.89 340.20, 743.78 342.74 C 742.67 345.27, 742.42 347.16, 741.33 350.52 C 740.24 353.89, 739.58 355.83, 738.35 359.56 C 737.12 363.30, 736.51 365.38, 735.17 369.20 C 733.83 373.01, 733.15 375.00, 731.66 378.65 C 730.17 382.31, 729.40 384.15, 727.71 387.46 C 726.01 390.77, 725.12 392.37, 723.16 395.19 C 721.21 398.00, 720.15 399.28, 717.92 401.52 C 715.69 403.76, 714.45 404.76, 712.02 406.39 C 709.59 408.02, 708.24 408.64, 705.75 409.68 C 703.26 410.71, 701.96 411.10, 699.55 411.58 C 697.15 412.06, 695.88 412.15, 693.72 412.07 C 691.55 411.99, 690.46 411.76, 688.74 411.17 C 687.01 410.59, 686.18 410.20, 685.09 409.17 C 684.00 408.14, 683.78 407.37, 683.29 406.02 C 682.80 404.67, 682.85 403.70, 682.64 402.42 C 682.44 401.15, 682.41 400.63, 682.25 399.64 C 682.09 398.65, 682.23 398.00, 681.83 397.48 C 681.44 396.97, 680.91 396.72, 680.28 397.07 C 679.66 397.41, 679.15 398.03, 678.72 399.19 C 678.28 400.35, 678.02 401.16, 678.11 402.86 C 678.19 404.57, 678.31 405.83, 679.13 407.71 C 679.95 409.58, 680.59 410.73, 682.22 412.24 C 683.84 413.75, 685.00 414.40, 687.26 415.26 C 689.51 416.12, 690.87 416.40, 693.51 416.54 C 696.14 416.69, 697.64 416.57, 700.44 416.00 C 703.24 415.44, 704.71 414.97, 707.50 413.71 C 710.28 412.46, 711.73 411.66, 714.37 409.75 C 717.00 407.84, 718.31 406.69, 720.67 404.18 C 723.03 401.67, 724.12 400.25, 726.14 397.22 C 728.16 394.18, 729.05 392.47, 730.78 389.02 C 732.51 385.56, 733.26 383.66, 734.79 379.93 C 736.32 376.20, 737.00 374.19, 738.42 370.37 C 739.85 366.55, 740.47 364.48, 741.91 360.85 C 743.34 357.21, 744.12 355.35, 745.59 352.19 C 747.06 349.04, 748.19 347.61, 749.25 345.07 C 750.31 342.52, 750.67 341.29, 750.88 339.48 C 751.09 337.67, 750.95 336.90, 750.30 336.02 C 749.66 335.14, 749.09 334.94, 747.64 335.10 C 746.20 335.26, 745.24 335.73, 743.07 336.84 C 740.90 337.94, 739.61 339.04, 736.79 340.62 C 733.96 342.20, 732.18 343.26, 728.94 344.74 C 725.69 346.22, 723.76 347.01, 720.56 348.03 C 717.37 349.04, 715.58 349.26, 712.95 349.81 C 710.32 350.37, 709.12 350.62, 707.41 350.81 C 705.70 351.00, 705.09 351.03, 704.39 350.77 C 703.70 350.51, 703.62 350.31, 703.94 349.51 C 704.26 348.71, 704.70 348.06, 705.99 346.78 C 707.28 345.50, 708.31 344.62, 710.39 343.11 C 712.46 341.61, 713.81 340.56, 716.37 339.24 C 718.94 337.91, 720.56 337.27, 723.21 336.48 C 725.86 335.70, 727.21 335.47, 729.63 335.29 C 732.05 335.11, 733.31 335.37, 735.31 335.58 C 737.31 335.79, 738.10 336.12, 739.62 336.33 C 741.15 336.54, 742.09 336.95, 742.92 336.64 C 743.75 336.32, 744.15 335.65, 743.78 334.78" style="stroke: black; fill: black;"/><path d="M 785.74,333.63 C 784.97 333.99, 784.65 334.64, 783.67 336.02 C 782.69 337.40, 782.02 338.30, 780.83 340.53 C 779.64 342.77, 779.07 344.52, 777.71 347.21 C 776.34 349.90, 775.40 351.45, 774.00 353.99 C 772.61 356.52, 771.74 357.86, 770.72 359.87 C 769.71 361.88, 769.21 362.84, 768.92 364.04 C 768.64 365.23, 768.82 365.70, 769.28 365.84 C 769.74 365.97, 770.32 365.78, 771.22 364.71 C 772.12 363.64, 772.73 362.64, 773.76 360.49 C 774.79 358.34, 775.06 356.70, 776.37 353.97 C 777.68 351.24, 778.42 349.59, 780.31 346.83 C 782.21 344.07, 783.42 342.64, 785.85 340.17 C 788.29 337.69, 789.71 336.48, 792.48 334.48 C 795.24 332.47, 796.82 331.55, 799.68 330.14 C 802.54 328.74, 804.05 328.23, 806.78 327.46 C 809.52 326.68, 810.84 326.56, 813.36 326.28 C 815.88 326.00, 817.15 326.14, 819.38 326.06 C 821.62 325.97, 823.45 326.29, 824.54 325.86 C 825.64 325.43, 825.85 324.69, 824.87 323.91 C 823.90 323.13, 822.07 322.38, 819.67 321.97 C 817.28 321.55, 815.70 321.54, 812.88 321.84 C 810.06 322.13, 808.56 322.47, 805.56 323.43 C 802.57 324.39, 800.97 325.03, 797.90 326.62 C 794.84 328.21, 793.19 329.23, 790.23 331.39 C 787.27 333.54, 785.78 334.83, 783.12 337.41 C 780.46 339.99, 779.17 341.49, 776.92 344.30 C 774.66 347.11, 773.57 348.69, 771.84 351.47 C 770.11 354.24, 769.16 355.75, 768.26 358.17 C 767.37 360.60, 767.25 361.94, 767.36 363.58 C 767.46 365.22, 767.96 365.91, 768.79 366.38 C 769.61 366.85, 770.30 366.75, 771.50 365.94 C 772.69 365.14, 773.36 364.24, 774.75 362.36 C 776.14 360.49, 776.89 359.09, 778.44 356.56 C 779.98 354.04, 780.97 352.46, 782.47 349.73 C 783.97 347.01, 784.93 345.37, 785.94 342.95 C 786.96 340.53, 787.22 339.37, 787.53 337.63 C 787.85 335.89, 787.87 335.06, 787.51 334.26 C 787.15 333.46, 786.51 333.28, 785.74 333.63" style="stroke: black; fill: black;"/><path d="M 876.58,329.50 C 876.06 328.57, 875.00 327.70, 873.12 326.73 C 871.23 325.77, 869.94 325.11, 867.15 324.68 C 864.37 324.25, 862.50 324.14, 859.20 324.58 C 855.90 325.03, 854.11 325.60, 850.65 326.90 C 847.19 328.20, 845.32 329.10, 841.90 331.07 C 838.48 333.05, 836.60 334.33, 833.54 336.78 C 830.48 339.22, 828.87 340.65, 826.61 343.29 C 824.35 345.93, 823.28 347.38, 822.22 349.98 C 821.16 352.58, 821.00 354.00, 821.31 356.30 C 821.62 358.59, 822.18 359.79, 823.78 361.46 C 825.38 363.12, 826.66 363.93, 829.30 364.62 C 831.95 365.31, 833.63 365.30, 837.00 364.93 C 840.36 364.56, 842.29 364.00, 846.12 362.78 C 849.94 361.56, 852.10 360.69, 856.14 358.82 C 860.17 356.95, 862.36 355.75, 866.30 353.43 C 870.24 351.12, 872.35 349.70, 875.84 347.26 C 879.34 344.82, 881.23 343.50, 883.79 341.24 C 886.35 338.97, 887.66 337.60, 888.63 335.95 C 889.61 334.30, 889.40 333.31, 888.67 332.99 C 887.95 332.66, 886.70 332.94, 885.02 334.32 C 883.34 335.70, 882.17 337.18, 880.28 339.91 C 878.38 342.63, 877.28 344.77, 875.54 347.95 C 873.79 351.12, 872.70 352.86, 871.55 355.77 C 870.39 358.68, 869.99 360.12, 869.76 362.51 C 869.54 364.90, 869.68 366.04, 870.42 367.71 C 871.16 369.38, 872.24 370.00, 873.48 370.86 C 874.72 371.71, 875.44 371.81, 876.63 372.00 C 877.82 372.19, 878.50 372.10, 879.43 371.82 C 880.37 371.55, 880.80 371.17, 881.31 370.63 C 881.83 370.10, 881.92 369.66, 881.99 369.15 C 882.06 368.64, 882.04 368.36, 881.68 368.08 C 881.32 367.80, 880.60 367.78, 880.19 367.76 C 879.77 367.73, 879.79 367.95, 879.61 367.95 C 879.42 367.95, 879.50 367.76, 879.26 367.76 C 879.03 367.76, 878.87 367.85, 878.44 367.93 C 878.01 368.00, 877.73 368.17, 877.12 368.14 C 876.50 368.10, 876.10 368.09, 875.37 367.75 C 874.64 367.41, 873.80 367.35, 873.45 366.43 C 873.10 365.51, 873.15 364.92, 873.62 363.15 C 874.09 361.39, 874.60 360.17, 875.80 357.61 C 877.01 355.04, 877.87 353.27, 879.66 350.34 C 881.46 347.41, 883.05 345.64, 884.80 342.95 C 886.55 340.26, 887.58 338.83, 888.41 336.90 C 889.25 334.96, 889.41 333.93, 888.99 333.29 C 888.56 332.65, 887.87 332.72, 886.31 333.71 C 884.74 334.70, 883.65 336.08, 881.17 338.26 C 878.69 340.43, 877.20 342.10, 873.90 344.59 C 870.61 347.07, 868.52 348.46, 864.69 350.69 C 860.87 352.92, 858.70 354.07, 854.77 355.75 C 850.84 357.43, 848.70 358.17, 845.06 359.10 C 841.42 360.03, 839.54 360.18, 836.58 360.40 C 833.62 360.61, 832.33 360.50, 830.27 360.18 C 828.21 359.85, 827.38 359.62, 826.28 358.78 C 825.18 357.93, 824.83 357.38, 824.77 355.95 C 824.70 354.52, 824.99 353.65, 825.97 351.63 C 826.95 349.62, 827.69 348.27, 829.67 345.88 C 831.66 343.49, 833.08 341.99, 835.89 339.69 C 838.71 337.38, 840.53 336.12, 843.75 334.33 C 846.97 332.54, 848.80 331.74, 851.98 330.72 C 855.16 329.71, 856.78 329.45, 859.67 329.27 C 862.56 329.09, 864.00 329.50, 866.41 329.82 C 868.82 330.14, 869.84 330.55, 871.71 330.86 C 873.58 331.18, 874.78 331.66, 875.76 331.39 C 876.73 331.11, 877.11 330.43, 876.58 329.50" style="stroke: black; fill: black;"/><path d="M 949.23,282.32 C 948.51 282.59, 948.19 282.91, 947.16 284.34 C 946.13 285.77, 945.47 286.70, 944.07 289.47 C 942.68 292.25, 942.06 294.30, 940.20 298.21 C 938.33 302.13, 937.13 304.54, 934.75 309.03 C 932.37 313.51, 930.85 316.04, 928.30 320.65 C 925.76 325.26, 924.37 327.71, 922.02 332.08 C 919.68 336.44, 918.49 338.63, 916.56 342.48 C 914.63 346.32, 913.74 348.12, 912.39 351.29 C 911.03 354.46, 910.43 355.91, 909.77 358.34 C 909.10 360.78, 909.15 361.88, 909.06 363.46 C 908.97 365.03, 909.06 365.44, 909.30 366.20 C 909.54 366.96, 909.94 367.09, 910.27 367.27 C 910.60 367.45, 910.88 367.19, 910.96 367.10 C 911.04 367.02, 910.63 366.88, 910.65 366.86 C 910.68 366.84, 910.86 367.13, 911.09 367.01 C 911.33 366.89, 911.56 366.87, 911.84 366.27 C 912.11 365.66, 912.13 365.35, 912.48 363.97 C 912.83 362.60, 912.97 361.68, 913.61 359.41 C 914.24 357.13, 914.54 355.72, 915.67 352.59 C 916.81 349.46, 917.51 347.62, 919.27 343.77 C 921.02 339.93, 922.17 337.73, 924.46 333.37 C 926.75 329.02, 928.12 326.57, 930.71 322.00 C 933.30 317.42, 934.85 314.91, 937.41 310.51 C 939.97 306.10, 941.30 303.74, 943.52 299.98 C 945.73 296.22, 947.05 294.51, 948.49 291.72 C 949.93 288.92, 950.25 287.75, 950.71 286.00 C 951.16 284.25, 951.07 283.71, 950.78 282.97 C 950.48 282.24, 949.95 282.05, 949.23 282.32" style="stroke: black; fill: black;"/><path d="M 903.19,332.98 C 903.78 333.50, 904.32 333.59, 905.95 333.83 C 907.57 334.06, 908.66 334.25, 911.33 334.15 C 913.99 334.05, 915.77 333.59, 919.25 333.33 C 922.73 333.08, 924.79 332.98, 928.72 332.87 C 932.66 332.76, 935.18 332.80, 938.95 332.77 C 942.71 332.75, 944.68 332.94, 947.55 332.74 C 950.42 332.54, 952.14 332.29, 953.30 331.76 C 954.46 331.24, 954.48 330.69, 953.34 330.11 C 952.19 329.54, 950.47 329.13, 947.58 328.88 C 944.70 328.63, 942.71 328.85, 938.93 328.86 C 935.15 328.87, 932.64 328.96, 928.68 328.93 C 924.72 328.91, 922.67 328.82, 919.13 328.74 C 915.60 328.67, 913.72 328.36, 911.01 328.57 C 908.29 328.78, 907.18 329.26, 905.57 329.79 C 903.97 330.32, 903.47 330.59, 902.99 331.23 C 902.51 331.87, 902.59 332.46, 903.19 332.98" style="stroke: black; fill: black;"/><path d="M 970.01,349.95 C 970.85 350.38, 971.74 350.46, 973.76 350.28 C 975.77 350.09, 977.13 349.88, 980.08 349.03 C 983.04 348.19, 985.03 347.37, 988.54 346.05 C 992.05 344.73, 994.08 343.91, 997.65 342.45 C 1001.21 341.00, 1003.17 340.23, 1006.38 338.78 C 1009.59 337.32, 1011.32 336.72, 1013.69 335.19 C 1016.06 333.65, 1017.06 332.77, 1018.21 331.10 C 1019.36 329.42, 1019.69 328.44, 1019.43 326.81 C 1019.17 325.19, 1018.66 324.15, 1016.90 322.97 C 1015.15 321.79, 1013.73 321.08, 1010.67 320.92 C 1007.61 320.76, 1005.61 321.26, 1001.62 322.18 C 997.62 323.09, 995.19 323.80, 990.70 325.50 C 986.21 327.19, 983.55 328.36, 979.16 330.65 C 974.78 332.94, 972.40 334.36, 968.77 336.97 C 965.14 339.57, 963.33 340.92, 961.02 343.66 C 958.71 346.40, 957.78 347.90, 957.20 350.66 C 956.62 353.41, 956.84 355.01, 958.13 357.46 C 959.41 359.91, 960.66 361.14, 963.62 362.90 C 966.58 364.66, 968.67 365.21, 972.95 366.26 C 977.22 367.30, 979.84 367.61, 984.99 368.13 C 990.14 368.65, 993.13 368.71, 998.71 368.85 C 1004.29 368.99, 1007.40 368.90, 1012.91 368.82 C 1018.42 368.74, 1021.57 368.58, 1026.24 368.45 C 1030.91 368.31, 1033.05 368.42, 1036.25 368.12 C 1039.46 367.83, 1041.08 367.50, 1042.27 366.98 C 1043.45 366.46, 1043.41 365.91, 1042.18 365.53 C 1040.95 365.15, 1039.32 365.09, 1036.11 365.10 C 1032.90 365.10, 1030.78 365.34, 1026.13 365.56 C 1021.48 365.78, 1018.33 366.07, 1012.86 366.20 C 1007.39 366.33, 1004.30 366.41, 998.79 366.21 C 993.28 366.01, 990.32 365.86, 985.33 365.20 C 980.34 364.53, 977.79 364.05, 973.85 362.90 C 969.91 361.74, 968.18 360.85, 965.65 359.41 C 963.12 357.98, 962.22 357.31, 961.20 355.71 C 960.18 354.11, 960.06 353.38, 960.56 351.42 C 961.06 349.47, 961.69 348.31, 963.70 345.92 C 965.71 343.54, 967.25 342.01, 970.62 339.50 C 974.00 336.99, 976.33 335.54, 980.57 333.36 C 984.81 331.19, 987.45 330.06, 991.81 328.62 C 996.16 327.17, 998.61 326.64, 1002.34 326.14 C 1006.08 325.63, 1007.87 326.05, 1010.47 326.10 C 1013.07 326.16, 1014.03 326.19, 1015.33 326.41 C 1016.64 326.63, 1016.94 326.71, 1017.00 327.19 C 1017.07 327.67, 1016.78 327.95, 1015.66 328.80 C 1014.53 329.65, 1013.57 330.16, 1011.37 331.43 C 1009.18 332.70, 1007.72 333.69, 1004.69 335.17 C 1001.65 336.65, 999.71 337.47, 996.21 338.82 C 992.70 340.17, 990.66 340.87, 987.15 341.92 C 983.63 342.97, 981.53 343.22, 978.64 344.08 C 975.75 344.95, 974.51 345.42, 972.70 346.24 C 970.89 347.05, 970.13 347.41, 969.60 348.15 C 969.06 348.89, 969.18 349.53, 970.01 349.95" style="stroke: black; fill: white;"/></svg>
